HIERARCHY
ROOT Hips
{
	OFFSET 0.000000 0.000000 0.000000
	CHANNELS 6 Xposition Yposition Zposition Xrotation Yrotation Zrotation
	JOINT Spine
	{
		OFFSET 0.000000 -0.000000 2.241567
		CHANNELS 6 Xposition Yposition Zposition Xrotation Yrotation Zrotation
		JOINT Spine1
		{
			OFFSET 0.000000 -0.000001 6.117040
			CHANNELS 6 Xposition Yposition Zposition Xrotation Yrotation Zrotation
			JOINT Neck
			{
				OFFSET 0.000000 -0.000001 6.663776
				CHANNELS 6 Xposition Yposition Zposition Xrotation Yrotation Zrotation
				JOINT Head
				{
					OFFSET 0.000000 -0.546725 4.237115
					CHANNELS 6 Xposition Yposition Zposition Xrotation Yrotation Zrotation
					End Site
					{
						OFFSET 0.000000 -0.000001 5.467228
					}
				}
			}
			JOINT LeftShoulder
			{
				OFFSET 1.100958 0.144516 5.380643
				CHANNELS 6 Xposition Yposition Zposition Xrotation Yrotation Zrotation
				JOINT LeftArm
				{
					OFFSET 3.928530 0.000000 0.000000
					CHANNELS 6 Xposition Yposition Zposition Xrotation Yrotation Zrotation
					JOINT LeftForeArm
					{
						OFFSET 7.703219 0.000000 0.000000
						CHANNELS 6 Xposition Yposition Zposition Xrotation Yrotation Zrotation
						JOINT LeftHand
						{
							OFFSET 7.159131 0.000000 0.000000
							CHANNELS 6 Xposition Yposition Zposition Xrotation Yrotation Zrotation
							End Site
							{
								OFFSET 4.100422 0.000000 0.000000
							}
						}
					}
				}
			}
			JOINT RightShoulder
			{
				OFFSET -1.085770 0.144516 5.380643
				CHANNELS 6 Xposition Yposition Zposition Xrotation Yrotation Zrotation
				JOINT RightArm
				{
					OFFSET -3.928530 0.000000 0.000000
					CHANNELS 6 Xposition Yposition Zposition Xrotation Yrotation Zrotation
					JOINT RightForeArm
					{
						OFFSET -7.703220 0.000000 0.000000
						CHANNELS 6 Xposition Yposition Zposition Xrotation Yrotation Zrotation
						JOINT RightHand
						{
							OFFSET -7.159133 0.000000 0.000000
							CHANNELS 6 Xposition Yposition Zposition Xrotation Yrotation Zrotation
							End Site
							{
								OFFSET -4.100422 0.000000 0.000000
							}
						}
					}
				}
			}
		}
	}
	JOINT LeftUpLeg
	{
		OFFSET 2.733621 0.000000 0.000000
		CHANNELS 6 Xposition Yposition Zposition Xrotation Yrotation Zrotation
		JOINT LeftLeg
		{
			OFFSET 0.000000 0.000002 -11.496661
			CHANNELS 6 Xposition Yposition Zposition Xrotation Yrotation Zrotation
			JOINT LeftFoot
			{
				OFFSET 0.000000 0.000002 -12.052939
				CHANNELS 6 Xposition Yposition Zposition Xrotation Yrotation Zrotation
				JOINT LeftToeBase
				{
					OFFSET 0.000000 -4.100430 -1.776853
					CHANNELS 6 Xposition Yposition Zposition Xrotation Yrotation Zrotation
					End Site
					{
						OFFSET 0.000000 -1.093446 0.000000
					}
				}
			}
		}
	}
	JOINT RightUpLeg
	{
		OFFSET -2.733621 0.000000 0.000000
		CHANNELS 6 Xposition Yposition Zposition Xrotation Yrotation Zrotation
		JOINT RightLeg
		{
			OFFSET 0.000000 0.000002 -11.496661
			CHANNELS 6 Xposition Yposition Zposition Xrotation Yrotation Zrotation
			JOINT RightFoot
			{
				OFFSET 0.000000 0.000002 -12.052939
				CHANNELS 6 Xposition Yposition Zposition Xrotation Yrotation Zrotation
				JOINT RightToeBase
				{
					OFFSET 0.000000 -4.100430 -1.776853
					CHANNELS 6 Xposition Yposition Zposition Xrotation Yrotation Zrotation
					End Site
					{
						OFFSET 0.000000 -1.093446 0.000000
					}
				}
			}
		}
	}
}
MOTION
Frames: 5
Frame Time: 0.016667
-3.530417 -5.533590 22.906654 9.129769 -1.334758 -0.186466 0.000001 -0.000001 2.241567 -17.676702 4.524368 -2.131406 -0.000000 -0.000002 6.117042 5.982484 -12.252964 -0.310901 0.000001 -0.000002 6.663782 12.503308 -0.771150 3.368106 0.000001 -0.546724 4.237113 1.182559 7.501533 4.384206 1.100959 0.144516 5.380645 -8.708432 -21.120683 -0.351730 3.928535 0.000000 0.000008 -9.338622 3.699786 -12.304210 7.703220 -0.000001 0.000001 -5.888800 2.160350 0.663890 7.159133 -0.000002 0.000001 -6.562525 3.909940 19.912792 -1.085770 0.144516 5.380644 1.138391 16.813366 -5.808780 -3.928530 0.000000 -0.000001 37.556936 0.076294 26.526167 -7.703220 -0.000002 0.000001 -31.864895 29.698390 91.841592 -7.159132 0.000002 -0.000000 5.670144 47.273778 -15.679949 2.733622 -0.000000 -0.000000 -18.592473 -17.102816 10.317845 0.000000 0.000002 -11.496660 22.649780 1.945885 3.698983 -0.000000 0.000002 -12.052940 -1.936672 8.597606 18.257331 -0.000001 -4.100430 -1.776853 0.000001 -0.000001 -0.000004 -2.733621 0.000000 -0.000000 -23.918412 21.045833 3.554641 -0.000001 0.000003 -11.496661 30.901955 -10.347584 19.559934 0.000001 0.000002 -12.052939 -15.812624 -4.494037 -49.319795 0.000001 -4.100432 -1.776851 -0.000000 -0.000001 -0.000002 
-3.533046 -5.533660 22.906532 9.129062 -1.327309 -0.194848 0.000000 -0.000001 2.241566 -17.684557 4.517611 -2.126792 0.000000 -0.000001 6.117038 5.987621 -12.256061 -0.308502 -0.000000 -0.000001 6.663779 12.520241 -0.786254 3.421897 0.000000 -0.546724 4.237122 1.125224 7.508672 4.444586 1.100957 0.144517 5.380640 -8.715948 -21.109982 -0.359034 3.928532 0.000000 -0.000004 -9.345995 3.695760 -12.298554 7.703224 -0.000000 0.000004 -5.893528 2.174091 0.670374 7.159132 0.000000 -0.000000 -6.558499 3.859816 19.920291 -1.085771 0.144516 5.380640 1.136484 16.818549 -5.800822 -3.928532 -0.000000 -0.000005 37.618308 0.094146 26.502174 -7.703221 -0.000002 -0.000002 -31.949019 29.723057 91.865778 -7.159132 -0.000003 -0.000006 5.592058 47.285492 -15.604346 2.733621 0.000000 -0.000003 -18.584456 -17.112848 10.295288 0.000000 0.000003 -11.496658 22.640750 1.948567 3.721865 0.000001 0.000000 -12.052938 -1.941083 8.643646 18.266936 -0.000000 -4.100430 -1.776853 0.000002 0.000001 0.000002 -2.733621 0.000000 -0.000003 -23.915031 21.029948 3.544266 0.000002 0.000003 -11.496661 30.894701 -10.343434 19.542913 0.000000 0.000001 -12.052938 -15.807853 -4.488259 -49.295029 -0.000000 -4.100429 -1.776849 -0.000002 -0.000000 -0.000001 
-3.535628 -5.534197 22.906046 9.121937 -1.327094 -0.194867 0.000000 -0.000001 2.241567 -17.680156 4.519385 -2.126720 0.000000 -0.000001 6.117039 5.984137 -12.259069 -0.308748 -0.000001 -0.000001 6.663778 12.517702 -0.794725 3.482899 0.000000 -0.546725 4.237122 1.099121 7.493740 4.507678 1.100958 0.144517 5.380643 -8.723360 -21.095094 -0.362837 3.928532 0.000000 0.000000 -9.319283 3.683571 -12.296047 7.703223 -0.000000 0.000005 -5.901169 2.180622 0.671084 7.159130 0.000001 -0.000002 -6.565703 3.856591 19.925555 -1.085772 0.144517 5.380641 1.150515 16.822404 -5.810783 -3.928533 -0.000000 0.000003 37.613244 0.106745 26.494335 -7.703219 -0.000001 -0.000002 -31.966832 29.715602 91.881016 -7.159129 0.000001 0.000004 5.594288 47.291465 -15.646941 2.733621 0.000000 -0.000000 -18.574536 -17.114040 10.273879 -0.000000 0.000002 -11.496660 22.633027 1.946984 3.706661 0.000001 0.000001 -12.052937 -1.935134 8.606754 18.295702 0.000000 -4.100430 -1.776851 0.000003 -0.000000 -0.000004 -2.733621 -0.000000 0.000000 -23.907513 21.026811 3.518884 0.000001 0.000003 -11.496662 30.904004 -10.332694 19.583438 -0.000000 0.000001 -12.052937 -15.802626 -4.455799 -49.297567 -0.000000 -4.100432 -1.776853 0.000003 0.000000 -0.000003 
-3.537749 -5.533625 22.905788 9.121392 -1.318122 -0.205672 -0.000000 -0.000000 2.241569 -17.684688 4.505985 -2.122064 -0.000000 -0.000001 6.117038 5.989004 -12.258281 -0.306165 -0.000000 -0.000001 6.663774 12.518862 -0.801992 3.535877 0.000000 -0.546724 4.237108 1.065391 7.483982 4.563551 1.100958 0.144517 5.380643 -8.729042 -21.098839 -0.357649 3.928529 0.000000 -0.000006 -9.290526 3.696847 -12.297063 7.703222 -0.000001 0.000001 -5.910730 2.175492 0.666620 7.159127 0.000001 -0.000004 -6.576237 3.859160 19.937713 -1.085770 0.144516 5.380640 1.145065 16.837466 -5.805094 -3.928530 -0.000002 -0.000002 37.599802 0.090948 26.485744 -7.703218 0.000001 0.000001 -31.952001 29.705924 91.890647 -7.159130 0.000001 -0.000002 5.617732 47.292797 -15.677376 2.733621 0.000000 0.000002 -18.567693 -17.120897 10.234535 0.000000 0.000003 -11.496660 22.619534 1.948275 3.748086 0.000000 0.000001 -12.052940 -1.936721 8.611739 18.300723 -0.000001 -4.100431 -1.776851 0.000001 -0.000001 -0.000001 -2.733621 -0.000000 0.000002 -23.922577 21.010116 3.521378 0.000001 0.000003 -11.496660 30.925915 -10.332922 19.613739 0.000001 0.000001 -12.052938 -15.810703 -4.459086 -49.320926 0.000003 -4.100430 -1.776853 0.000000 0.000000 0.000001 
-3.540210 -5.533704 22.905142 9.113429 -1.321566 -0.204688 0.000000 -0.000001 2.241566 -17.683455 4.512013 -2.118783 0.000001 -0.000001 6.117037 5.992504 -12.258658 -0.305008 -0.000000 -0.000001 6.663779 12.532690 -0.816196 3.579518 -0.000000 -0.546723 4.237111 1.016847 7.482799 4.611882 1.100957 0.144516 5.380642 -8.720124 -21.093371 -0.350080 3.928534 -0.000000 0.000005 -9.308470 3.697357 -12.309463 7.703220 -0.000001 0.000003 -5.901667 2.178361 0.678232 7.159128 -0.000000 -0.000003 -6.565689 3.853952 19.927587 -1.085770 0.144515 5.380643 1.140807 16.847770 -5.798004 -3.928530 -0.000002 -0.000001 37.577286 0.063996 26.468288 -7.703220 -0.000001 -0.000002 -31.930888 29.707464 91.904491 -7.159131 0.000002 -0.000002 5.650819 47.245235 -15.702236 2.733622 -0.000001 -0.000001 -18.562566 -17.100856 10.296357 0.000000 0.000003 -11.496663 22.616503 1.882620 3.764338 -0.000000 0.000001 -12.052939 -1.922376 8.636528 18.236016 0.000000 -4.100430 -1.776849 0.000002 0.000001 0.000001 -2.733621 -0.000000 0.000001 -23.925417 21.013574 3.506294 -0.000000 0.000004 -11.496662 30.949288 -10.334206 19.614948 -0.000001 0.000000 -12.052939 -15.822637 -4.456233 -49.306091 0.000001 -4.100431 -1.776851 0.000001 -0.000001 -0.000002 
